<?xml version="1.0" encoding="utf-8"?>
<svg xmlns="http://www.w3.org/2000/svg" xmlns:xlink="http://www.w3.org/1999/xlink" style="margin: auto; background: none; display: block; shape-rendering: auto;" width="154px" height="154px" viewBox="0 0 100 100" preserveAspectRatio="xMidYMid">
<g transform="rotate(0 50 50)">
  <rect x="48" y="14.5" rx="2" ry="8.5" width="4" height="17" fill="#da1717">
    <animate attributeName="opacity" values="1;0" keyTimes="0;1" dur="1.4925373134328357s" begin="-1.4328358208955223s" repeatCount="indefinite"></animate>
  </rect>
</g><g transform="rotate(14.4 50 50)">
  <rect x="48" y="14.5" rx="2" ry="8.5" width="4" height="17" fill="#da1717">
    <animate attributeName="opacity" values="1;0" keyTimes="0;1" dur="1.4925373134328357s" begin="-1.373134328358209s" repeatCount="indefinite"></animate>
  </rect>
</g><g transform="rotate(28.8 50 50)">
  <rect x="48" y="14.5" rx="2" ry="8.5" width="4" height="17" fill="#da1717">
    <animate attributeName="opacity" values="1;0" keyTimes="0;1" dur="1.4925373134328357s" begin="-1.3134328358208955s" repeatCount="indefinite"></animate>
  </rect>
</g><g transform="rotate(43.2 50 50)">
  <rect x="48" y="14.5" rx="2" ry="8.5" width="4" height="17" fill="#da1717">
    <animate attributeName="opacity" values="1;0" keyTimes="0;1" dur="1.4925373134328357s" begin="-1.2537313432835822s" repeatCount="indefinite"></animate>
  </rect>
</g><g transform="rotate(57.6 50 50)">
  <rect x="48" y="14.5" rx="2" ry="8.5" width="4" height="17" fill="#da1717">
    <animate attributeName="opacity" values="1;0" keyTimes="0;1" dur="1.4925373134328357s" begin="-1.1940298507462686s" repeatCount="indefinite"></animate>
  </rect>
</g><g transform="rotate(72 50 50)">
  <rect x="48" y="14.5" rx="2" ry="8.5" width="4" height="17" fill="#da1717">
    <animate attributeName="opacity" values="1;0" keyTimes="0;1" dur="1.4925373134328357s" begin="-1.1343283582089552s" repeatCount="indefinite"></animate>
  </rect>
</g><g transform="rotate(86.4 50 50)">
  <rect x="48" y="14.5" rx="2" ry="8.5" width="4" height="17" fill="#da1717">
    <animate attributeName="opacity" values="1;0" keyTimes="0;1" dur="1.4925373134328357s" begin="-1.0746268656716418s" repeatCount="indefinite"></animate>
  </rect>
</g><g transform="rotate(100.8 50 50)">
  <rect x="48" y="14.5" rx="2" ry="8.5" width="4" height="17" fill="#da1717">
    <animate attributeName="opacity" values="1;0" keyTimes="0;1" dur="1.4925373134328357s" begin="-1.0149253731343284s" repeatCount="indefinite"></animate>
  </rect>
</g><g transform="rotate(115.2 50 50)">
  <rect x="48" y="14.5" rx="2" ry="8.5" width="4" height="17" fill="#da1717">
    <animate attributeName="opacity" values="1;0" keyTimes="0;1" dur="1.4925373134328357s" begin="-0.9552238805970149s" repeatCount="indefinite"></animate>
  </rect>
</g><g transform="rotate(129.6 50 50)">
  <rect x="48" y="14.5" rx="2" ry="8.5" width="4" height="17" fill="#da1717">
    <animate attributeName="opacity" values="1;0" keyTimes="0;1" dur="1.4925373134328357s" begin="-0.8955223880597015s" repeatCount="indefinite"></animate>
  </rect>
</g><g transform="rotate(144 50 50)">
  <rect x="48" y="14.5" rx="2" ry="8.5" width="4" height="17" fill="#da1717">
    <animate attributeName="opacity" values="1;0" keyTimes="0;1" dur="1.4925373134328357s" begin="-0.835820895522388s" repeatCount="indefinite"></animate>
  </rect>
</g><g transform="rotate(158.4 50 50)">
  <rect x="48" y="14.5" rx="2" ry="8.5" width="4" height="17" fill="#da1717">
    <animate attributeName="opacity" values="1;0" keyTimes="0;1" dur="1.4925373134328357s" begin="-0.7761194029850746s" repeatCount="indefinite"></animate>
  </rect>
</g><g transform="rotate(172.8 50 50)">
  <rect x="48" y="14.5" rx="2" ry="8.5" width="4" height="17" fill="#da1717">
    <animate attributeName="opacity" values="1;0" keyTimes="0;1" dur="1.4925373134328357s" begin="-0.7164179104477612s" repeatCount="indefinite"></animate>
  </rect>
</g><g transform="rotate(187.2 50 50)">
  <rect x="48" y="14.5" rx="2" ry="8.5" width="4" height="17" fill="#da1717">
    <animate attributeName="opacity" values="1;0" keyTimes="0;1" dur="1.4925373134328357s" begin="-0.6567164179104478s" repeatCount="indefinite"></animate>
  </rect>
</g><g transform="rotate(201.6 50 50)">
  <rect x="48" y="14.5" rx="2" ry="8.5" width="4" height="17" fill="#da1717">
    <animate attributeName="opacity" values="1;0" keyTimes="0;1" dur="1.4925373134328357s" begin="-0.5970149253731343s" repeatCount="indefinite"></animate>
  </rect>
</g><g transform="rotate(216 50 50)">
  <rect x="48" y="14.5" rx="2" ry="8.5" width="4" height="17" fill="#da1717">
    <animate attributeName="opacity" values="1;0" keyTimes="0;1" dur="1.4925373134328357s" begin="-0.5373134328358209s" repeatCount="indefinite"></animate>
  </rect>
</g><g transform="rotate(230.4 50 50)">
  <rect x="48" y="14.5" rx="2" ry="8.5" width="4" height="17" fill="#da1717">
    <animate attributeName="opacity" values="1;0" keyTimes="0;1" dur="1.4925373134328357s" begin="-0.47761194029850745s" repeatCount="indefinite"></animate>
  </rect>
</g><g transform="rotate(244.8 50 50)">
  <rect x="48" y="14.5" rx="2" ry="8.5" width="4" height="17" fill="#da1717">
    <animate attributeName="opacity" values="1;0" keyTimes="0;1" dur="1.4925373134328357s" begin="-0.417910447761194s" repeatCount="indefinite"></animate>
  </rect>
</g><g transform="rotate(259.2 50 50)">
  <rect x="48" y="14.5" rx="2" ry="8.5" width="4" height="17" fill="#da1717">
    <animate attributeName="opacity" values="1;0" keyTimes="0;1" dur="1.4925373134328357s" begin="-0.3582089552238806s" repeatCount="indefinite"></animate>
  </rect>
</g><g transform="rotate(273.6 50 50)">
  <rect x="48" y="14.5" rx="2" ry="8.5" width="4" height="17" fill="#da1717">
    <animate attributeName="opacity" values="1;0" keyTimes="0;1" dur="1.4925373134328357s" begin="-0.29850746268656714s" repeatCount="indefinite"></animate>
  </rect>
</g><g transform="rotate(288 50 50)">
  <rect x="48" y="14.5" rx="2" ry="8.5" width="4" height="17" fill="#da1717">
    <animate attributeName="opacity" values="1;0" keyTimes="0;1" dur="1.4925373134328357s" begin="-0.23880597014925373s" repeatCount="indefinite"></animate>
  </rect>
</g><g transform="rotate(302.4 50 50)">
  <rect x="48" y="14.5" rx="2" ry="8.5" width="4" height="17" fill="#da1717">
    <animate attributeName="opacity" values="1;0" keyTimes="0;1" dur="1.4925373134328357s" begin="-0.1791044776119403s" repeatCount="indefinite"></animate>
  </rect>
</g><g transform="rotate(316.8 50 50)">
  <rect x="48" y="14.5" rx="2" ry="8.5" width="4" height="17" fill="#da1717">
    <animate attributeName="opacity" values="1;0" keyTimes="0;1" dur="1.4925373134328357s" begin="-0.11940298507462686s" repeatCount="indefinite"></animate>
  </rect>
</g><g transform="rotate(331.2 50 50)">
  <rect x="48" y="14.5" rx="2" ry="8.5" width="4" height="17" fill="#da1717">
    <animate attributeName="opacity" values="1;0" keyTimes="0;1" dur="1.4925373134328357s" begin="-0.05970149253731343s" repeatCount="indefinite"></animate>
  </rect>
</g><g transform="rotate(345.6 50 50)">
  <rect x="48" y="14.5" rx="2" ry="8.5" width="4" height="17" fill="#da1717">
    <animate attributeName="opacity" values="1;0" keyTimes="0;1" dur="1.4925373134328357s" begin="0s" repeatCount="indefinite"></animate>
  </rect>
</g>
<!-- [ldio] generated by https://loading.io/ --></svg>